#!OML:ASF H:\Terrain\Patient Classification 1\Walking\liu\liu.ASF
:FULLY-SPECIFIED
:DEGREES
23
root 9.31143267648 16.3948921488 -25.5225846735 4.31579767687 -7.95534567225 2.35817888583
lowerback -5.1318955841 -1.0664678102 -3.85305221416
upperback -1.55601849836 -1.27202667972 2.62513994794
thorax 1.41605971183 -0.641543465715 4.80215163929
lowerneck -22.167317398 -3.97720114672 -11.7183911738
upperneck 19.2714017915 -4.55624771857 12.0614155394
head 10.3901234046 -1.55638829949 5.60929501057
rclavicle 1.40229228241e-14 1.58801677612e-14
rhumerus -43.7248230889 13.9985141047 -89.108263011
rradius 40.0108610925
rwrist -22.124183064
rhand -30.649868278 -22.6128531733
rfingers 7.12502
rthumb -3.94501031576 -52.5560763298
lclavicle 1.40229228241e-14 1.58801677612e-14
lhumerus -27.6728484934 -12.2189435076 87.373232601
lradius 25.8568254474
lwrist 1.2260572371
lhand -13.4583879103 -24.4843310535
lfingers 7.12502
lthumb 12.6524809465 5.13036018323
rfemur -22.0197834156 0.57574895947 18.0846196753
rtibia 62.3597160825
rfoot -15.9711682875 -12.3436851127
rtoes -10.1424081123
lfemur -16.4925022276 2.9105639189 -27.0510647527
ltibia 27.5435964022
lfoot -15.8122665478 9.33538559246
ltoes 0.635797800232
24
root 9.34037982246 16.357773425 -25.1125573014 3.74833355541 -7.12951862447 2.87916346655
lowerback -5.04224108047 -1.1854580958 -4.12737874605
upperback -1.18067129486 -1.41451713654 2.42443662987
thorax 1.77103787578 -0.72960192873 4.73690308419
lowerneck -22.8338996139 -4.20813247242 -11.8718883565
upperneck 19.9593727094 -4.74821333712 11.8216252421
head 10.7867320808 -1.66724564453 5.54427435015
rclavicle -1.18745562623e-14 -6.35517688395e-15
rhumerus -43.5578291917 13.4945308537 -88.6548046987
rradius 39.8719956937
rwrist -21.8876709977
rhand -31.0106323597 -24.0809893018
rfingers 7.12502
rthumb -4.29336670308 -54.0174963416
lclavicle -1.18745562623e-14 -6.35517688395e-15
lhumerus -25.5455021236 -14.2829387489 87.0754654228
lradius 28.1223593603
lwrist 3.08166947468
lhand -10.1311155596 -23.2450827574
lfingers 7.12502
lthumb 15.8573766942 6.12550387247
rfemur -24.9946930526 1.49429147841 17.9319012489
rtibia 60.0900140058
rfoot -18.010113494 -12.9266946606
rtoes -11.5474967448
lfemur -14.058386133 2.38169967771 -27.8648516916
ltibia 27.159530819
lfoot -15.8906287213 9.49389836446
ltoes -3.40498413799
25
root 9.36901119762 16.3294842812 -24.6787994062 3.66539161785 -5.94037790537 3.12011825893
lowerback -5.57398754158 -1.15796691673 -4.0176998659
upperback -0.928238753837 -1.36140718716 2.27847278842
thorax 2.3174504982 -0.720073088376 4.51608596861
lowerneck -22.4672254507 -4.77821407064 -12.3970812654
upperneck 19.8213873864 -5.40119960487 11.8228848905
head 10.7758464447 -2.01655302049 5.52017127553
rclavicle 6.56694610367e-16 1.07060472718e-14
rhumerus -43.5576374518 12.5294943636 -87.9976779739
rradius 39.6483613988
rwrist -21.7442320612
rhand -29.952372993 -25.4626649656
rfingers 7.12502
rthumb -3.27149692614 -55.4172159149
lclavicle 6.56694610367e-16 1.07060472718e-14
lhumerus -23.4562781819 -17.0255358585 87.2386403886
lradius 29.9745938962
lwrist 5.24839216298
lhand -11.4321254053 -24.0598858866
lfingers 7.12502
lthumb 14.6041463239 5.4058519398
rfemur -27.878692292 2.16694831243 17.7100795093
rtibia 56.7717285662
rfoot -19.8979659746 -12.880373492
rtoes -11.3149128571
lfemur -11.9635421387 2.1614519824 -28.339759363
ltibia 26.5879231813
lfoot -17.4780019037 8.77867887486
ltoes -1.09075024024
26
root 9.38563375381 16.3093179175 -24.2469946183 3.52990783183 -4.61115510265 3.02207079054
lowerback -6.05344413375 -1.60844610662 -4.00498314438
upperback -0.879167673899 -1.95026347597 2.41940939056
thorax 2.7051579933 -1.02491744549 4.59706045454
lowerneck -21.3926256459 -4.78684260713 -12.4771885786
upperneck 19.8787955341 -5.45708506009 11.5615117864
head 10.5976163524 -2.11100301421 5.42473701556
rclavicle -1.32008411467e-14 2.18223111644e-14
rhumerus -43.9080981393 12.6097524096 -87.7679881348
rradius 38.9522188441
rwrist -21.902667022
rhand -29.8401321434 -21.0388503853
rfingers 7.12502
rthumb -3.16309680897 -50.9951318665
lclavicle -1.32008411467e-14 2.18223111644e-14
lhumerus -22.601730708 -18.1549136683 87.1376371821
lradius 32.3067907447
lwrist 6.90098020642
lhand -12.6571456 -24.3515924801
lfingers 7.12502
lthumb 13.4236606022 5.19591411008
rfemur -30.2421989295 2.75680085384 17.6888357742
rtibia 52.5838907047
rfoot -20.3003300666 -12.632629111
rtoes -19.3762250685
lfemur -9.39074664299 1.8858624658 -28.3219070004
ltibia 25.1478412618
lfoot -18.5254256013 7.98395033174
ltoes -0.977329242754
27
root 9.40037519317 16.3021577051 -23.8142885289 3.44619727573 -3.20560519337 3.88509468924
lowerback -7.08128090936 -1.82114060624 -4.79502220531
upperback -0.301495821628 -2.12754206035 2.23158609875
thorax 3.92398168668 -1.16568298803 4.80151228308
lowerneck -21.1622531188 -4.99034209161 -12.8851128964
upperneck 19.8976832937 -5.58401676557 11.3529179245
head 10.5854594188 -2.23145732573 5.39504062698
rclavicle 1.04855362401e-14 -3.00359059097e-14
rhumerus -43.3718209577 11.8735960673 -86.9320905967
rradius 38.548011225
rwrist -21.4880186825
rhand -29.9559900626 -22.6894442748
rfingers 7.12502
rthumb -3.27496837137 -52.6438150627
lclavicle 1.04855362401e-14 -3.00359059097e-14
lhumerus -20.7559821731 -20.7117460076 87.4112839487
lradius 34.251740043
lwrist 8.43990967138
lhand -14.841656949 -24.9751649473
lfingers 7.12502
lthumb 11.3174680059 4.69943876819
rfemur -32.483305202 3.31638677243 16.2294199068
rtibia 48.249717883
rfoot -20.9953147607 -11.6907463582
rtoes -18.6593916017
lfemur -6.2894504598 1.43184047633 -29.3155046324
ltibia 22.4376799841
lfoot -18.4470132937 7.13545917431
ltoes -0.654314080673
28
root 9.40663078742 16.282016001 -23.3794177045 3.30618906432 -1.35117518381 3.66373717723
lowerback -7.08647567726 -2.2573203461 -4.29654787506
upperback -0.39722024956 -2.74758495077 2.19190214261
thorax 3.87554819492 -1.46087688102 4.40809491935
lowerneck -20.3476858514 -4.91273555853 -13.0185642428
upperneck 19.9245880502 -5.57054795549 11.4750903187
head 10.4490990239 -2.2456615715 5.46724851688
rclavicle 1.24526132344e-14 -5.28538643435e-15
rhumerus -44.0487205919 11.8224417355 -87.0245358768
rradius 37.9323287032
rwrist -22.0781989555
rhand -30.949974144 -22.9098713127
rfingers 7.12502
rthumb -4.23481864947 -52.8473707186
lclavicle 1.24526132344e-14 -5.28538643435e-15
lhumerus -20.5811691667 -21.9833549872 87.5632544768
lradius 36.2327128495
lwrist 9.59411649921
lhand -14.8436257317 -25.0300244135
lfingers 7.12502
lthumb 11.3155126834 4.64477315276
rfemur -33.9004287366 4.41962754082 15.5042594681
rtibia 43.4413549581
rfoot -20.6513387962 -9.91956463715
rtoes -16.9326454391
lfemur -3.11564888417 0.190469606831 -29.1347163499
ltibia 19.7635561552
lfoot -18.3829936289 7.01591447402
ltoes -1.22241167182
29
root 9.41080223962 16.2931757088 -22.9212049354 3.18442123803 -0.0626415466482 3.89467749913
lowerback -7.40180472792 -2.39146116567 -4.19210322651
upperback -0.286751400971 -2.90930548195 1.88667348686
thorax 4.16375228524 -1.54400194496 3.99775322013
lowerneck -19.9790594519 -5.14125358089 -12.9291285242
upperneck 20.2594836737 -5.92591675485 11.1935104379
head 10.5392476618 -2.44641403319 5.30057803039
rclavicle -2.44151266236e-14 2.28117131676e-15
rhumerus -44.4113458568 10.6763474686 -86.6515935996
rradius 37.4526936381
rwrist -20.9355356286
rhand -29.6260941718 -24.1680449886
rfingers 7.12502
rthumb -2.95642022435 -54.1273969181
lclavicle -2.44151266236e-14 2.28117131676e-15
lhumerus -20.7569855776 -24.179696437 87.9204021695
lradius 38.280191732
lwrist 11.1328810021
lhand -15.5216542708 -25.872005445
lfingers 7.12502
lthumb 10.6615398489 3.83749379698
rfemur -35.2461033663 5.80534890709 14.0940828952
rtibia 39.0131158573
rfoot -20.8529113021 -8.34312677759
rtoes -16.4968605712
lfemur 1.34278237377 0.271292385362 -29.1872446245
ltibia 14.7502907848
lfoot -17.2126967686 5.76576287336
ltoes -2.44423476244
30
root 9.4064770213 16.2921319859 -22.4432707261 3.64758482219 1.08953140726 3.91063254083
lowerback -7.99732485862 -2.62285469653 -4.28701341658
upperback -0.493629407374 -3.18611147211 1.8680435101
thorax 4.31496388644 -1.68111865671 3.98018536706
lowerneck -20.0678850827 -4.94200459254 -12.2947388899
upperneck 20.9131088501 -5.83535412949 10.9896352175
head 10.7520022224 -2.3784497364 5.15165398127
rclavicle 1.93042010821e-14 -1.84438923332e-14
rhumerus -44.9467572901 10.2090318947 -86.4145749492
rradius 36.648297783
rwrist -20.3259087478
rhand -29.7885837729 -23.4092915934
rfingers 7.12502
rthumb -3.11327938554 -53.3662947053
lclavicle 1.93042010821e-14 -1.84438923332e-14
lhumerus -21.8429507525 -25.7736559403 88.8266013487
lradius 40.4756132367
lwrist 12.6916644976
lhand -15.232459018 -24.8196875424
lfingers 7.12502
lthumb 10.9405695016 4.8753776758
rfemur -36.9189354395 7.31371129112 12.5715495416
rtibia 34.4772501951
rfoot -20.895326523 -7.14623203264
rtoes -17.7113026049
lfemur 5.7174831689 0.353678711448 -28.9692278003
ltibia 8.95636753734
lfoot -16.032484935 4.62982689967
ltoes -3.52033728443
31
root 9.39037995947 16.2423595274 -21.9757529321 3.73899574385 2.2824942963 4.31536301353
lowerback -8.2276530696 -2.91882553062 -4.46504489248
upperback -0.515609728529 -3.54300173756 1.62529316536
thorax 4.45302769676 -1.86097023526 3.77063558798
lowerneck -19.9303457888 -4.92665233747 -12.5226682586
upperneck 21.2745603837 -5.88333089319 11.3554815891
head 10.8854055679 -2.38259570094 5.3350656193
rclavicle -3.16118154445e-14 7.25695706213e-15
rhumerus -45.894948497 10.2003481745 -86.7995824046
rradius 36.5818328122
rwrist -19.808106843
rhand -30.5252496587 -24.3439055844
rfingers 7.12502
rthumb -3.82468920091 -54.2893204659
lclavicle -3.16118154445e-14 7.25695706213e-15
lhumerus -22.9594920988 -26.5942166883 89.6360373409
lradius 41.747847053
lwrist 13.0893445745
lhand -14.348458652 -25.2245999527
lfingers 7.12502
lthumb 11.7930644837 4.42333885093
rfemur -38.3835700874 9.03482015996 10.3408888797
rtibia 31.050901733
rfoot -21.2836634545 -7.17339231307
rtoes -21.5700650846
lfemur 12.0362097632 0.470508804073 -29.0278943357
ltibia 0.00851909591747
lfoot -12.9910269127 3.37776765829
ltoes -4.3681341015
